<svg width="24" height="24" viewBox="0 0 24 24" fill="none" xmlns="http://www.w3.org/2000/svg">
<path d="M6.15716 17.4681C5.80571 17.1836 5.43315 16.9286 5.04302 16.7056C6.27406 14.6124 8.73615 13.1445 11.6183 13.0187C11.836 11.2777 12.3863 9.60004 13.2366 8.08508C13.3727 8.00231 13.5284 7.96134 13.6859 7.96688C13.8291 7.96526 13.971 7.99514 14.1023 8.05457C14.2266 8.11248 14.3265 8.21543 14.3836 8.34434C13.5093 9.76203 12.9444 11.363 12.7288 13.034C15.4503 13.2742 17.7845 14.7001 18.9754 16.7056C18.5802 16.928 18.2028 17.183 17.8466 17.4681C17.3498 17.8494 17.2877 17.9028 16.8932 17.9028C16.4987 17.9028 16.4439 17.8723 15.9471 17.4681C14.8353 16.5129 13.4401 15.9905 12.0001 15.9905C10.56 15.9905 9.16478 16.5129 8.05304 17.4681C7.55624 17.8494 7.49414 17.9028 7.09962 17.9028C6.70511 17.9028 6.63935 17.8723 6.15716 17.4681ZM21.6785 17.4186C21.2037 16.9954 20.4621 17.2813 19.9543 17.491C19.4428 17.7217 18.9626 18.0217 18.526 18.3832C17.9781 18.8102 17.6749 19.0466 16.9151 19.0466C16.1553 19.0466 15.8521 18.8102 15.3041 18.3832C14.383 17.5763 13.219 17.1341 12.0165 17.1341C10.814 17.1341 9.64994 17.5763 8.72884 18.3832C8.1809 18.8102 7.8777 19.0466 7.11789 19.0466C6.35808 19.0466 6.05488 18.8102 5.50694 18.3832C5.03504 18.0069 4.51648 17.6991 3.9654 17.4681C3.4686 17.2661 2.78184 17.0144 2.32157 17.4224C2.22044 17.5129 2.13932 17.6252 2.08382 17.7516C2.02832 17.878 1.99976 18.0154 2.00011 18.1544V19.1953C1.9968 19.4162 2.06769 19.6313 2.20047 19.8033C2.33326 19.9753 2.51956 20.0934 2.72705 20.137C3.13339 20.2492 3.50878 20.4594 3.82293 20.7509C4.73912 21.5663 5.90658 22.009 7.11058 21.9976C8.31453 22.0087 9.48188 21.566 10.3982 20.7509C10.9462 20.3239 11.2494 20.0875 12.0092 20.0875C12.769 20.0875 13.0722 20.3239 13.6201 20.7509C14.5412 21.5577 15.7053 22 16.9078 22C18.1103 22 19.2743 21.5577 20.1954 20.7509C20.5097 20.4597 20.8851 20.2494 21.2913 20.137C21.493 20.0901 21.6732 19.9726 21.8021 19.8041C21.9309 19.6356 22.0008 19.4262 22 19.2106V18.1659C21.998 18.0263 21.9669 17.8888 21.9089 17.7631C21.8509 17.6373 21.7673 17.5263 21.6639 17.4376L21.6785 17.4186ZM8.48409 6.4113C8.54403 6.44338 8.61034 6.46036 8.6777 6.46086C8.75177 6.45834 8.82405 6.43642 8.88788 6.39711C8.95172 6.3578 9.00506 6.30237 9.04299 6.23592C9.16209 6.03666 9.32959 5.87385 9.52848 5.76403C9.72738 5.65421 9.95057 5.60128 10.1754 5.61063C10.3904 5.61117 10.6031 5.65789 10.8001 5.74789C10.8805 5.78638 10.9576 5.83232 11.0302 5.88515C11.8143 4.17024 13.1588 2.80348 14.822 2.0305C14.643 2.0305 14.4567 2 14.274 2C13.3972 2.00594 12.5294 2.18578 11.7169 2.52997C10.2051 3.11893 8.9722 4.29904 8.27953 5.82033C8.23578 5.92759 8.23256 6.04815 8.27051 6.15778C8.30846 6.26742 8.38477 6.35799 8.48409 6.4113ZM17.6749 8.85143C17.9744 8.97016 18.2253 9.19334 18.385 9.48312C18.5448 9.77289 18.6037 10.1114 18.5516 10.4413C18.5393 10.5073 18.541 10.5754 18.5567 10.6406C18.5724 10.7059 18.6018 10.7667 18.6426 10.8188C18.6834 10.8708 18.7347 10.9128 18.7928 10.9418C18.851 10.9708 18.9146 10.9861 18.979 10.9865C19.0662 10.9864 19.1513 10.9591 19.2235 10.9081C19.2958 10.8572 19.3518 10.7849 19.3845 10.7006C20.2502 8.47779 19.9032 5.5725 18.2557 3.73478C18.3767 5.45489 18.0893 7.17958 17.4192 8.75611C17.507 8.78153 17.5925 8.8147 17.6749 8.85524V8.85143ZM11.6366 7.48648C11.6335 7.59035 11.6605 7.69278 11.7139 7.78048C11.7673 7.86818 11.8447 7.93711 11.9361 7.97832C12.0337 8.02158 12.1429 8.02648 12.2437 7.99214C12.3444 7.95779 12.4298 7.88651 12.4841 7.7915C12.6177 7.6007 12.7951 7.448 13 7.3474C13.2048 7.24681 13.4307 7.20155 13.6567 7.21578C13.9081 7.2126 14.1573 7.26592 14.3873 7.3721C14.6694 7.50442 14.8965 7.73818 15.0273 8.03074C15.1581 8.32329 15.1837 8.65516 15.0996 8.96581C15.0693 9.07274 15.0774 9.18753 15.1225 9.28863C15.1675 9.38973 15.2464 9.47017 15.3443 9.51484H15.3845C15.4373 9.53972 15.4946 9.55271 15.5525 9.55297C15.6148 9.55255 15.6763 9.53841 15.7329 9.51147C15.7896 9.48453 15.8401 9.4454 15.8813 9.39665C17.0175 7.45808 17.437 5.15346 17.0612 2.91505C17.0446 2.85422 17.0163 2.79753 16.9782 2.7484C16.94 2.69926 16.8927 2.65869 16.8391 2.62912C16.7856 2.59956 16.7268 2.58161 16.6664 2.57637C16.606 2.57112 16.5452 2.57868 16.4877 2.59859C12.8713 3.74241 11.8923 6.4113 11.6366 7.48648Z" fill="#191D21"/>
</svg>
