<svg width="24" height="24" viewBox="0 0 24 24" fill="none" xmlns="http://www.w3.org/2000/svg">
<path d="M12 2C9.709 2 7.56081 3.13791 6.25781 5.00391C2.78481 5.13191 0 7.997 0 11.5C0 15.084 2.916 18 6.5 18H9V16H6.5C4.019 16 2 13.981 2 11.5C2 9.019 4.019 7 6.5 7L7.35938 7.04688L7.66797 6.51367C8.55997 4.96267 10.22 4 12 4C14.472 4 16.5446 5.77284 16.9316 8.21484L17.082 9.17578L18.1816 9.03125C18.2866 9.01725 18.391 9 18.5 9C20.43 9 22 10.57 22 12.5C22 14.43 20.43 16 18.5 16H15V18H18.5C21.532 18 24 15.533 24 12.5C24 9.536 21.6431 7.11191 18.7051 7.00391C17.8391 4.05591 15.149 2 12 2ZM11 12V20H8L12 24L16 20H13V12H11Z" fill="#191D21"/>
</svg>
