<svg width="24" height="24" viewBox="0 0 24 24" fill="none" xmlns="http://www.w3.org/2000/svg">
<path d="M3.60744 4.20874L11.0002 9.94641V5.01373C11.0003 4.82461 11.0525 4.63925 11.1509 4.47863C11.2494 4.318 11.3903 4.18851 11.5575 4.10477C11.7248 4.02104 11.9118 3.98641 12.0975 4.0048C12.2832 4.02319 12.4601 4.09387 12.6082 4.20884L21.6084 11.1943C21.7302 11.289 21.8289 11.4109 21.8968 11.5504C21.9647 11.69 22 11.8436 22 11.9992C22 12.1548 21.9647 12.3084 21.8968 12.448C21.8289 12.5875 21.7302 12.7094 21.6084 12.8041L12.6082 19.7907C12.46 19.9053 12.2831 19.9757 12.0976 19.994C11.912 20.0122 11.7251 19.9775 11.558 19.8938C11.3908 19.8101 11.25 19.6808 11.1515 19.5204C11.0529 19.3599 11.0006 19.1748 11.0002 18.9858V14.0524L3.60844 19.7908C3.46032 19.9059 3.28337 19.9767 3.09761 19.9952C2.91186 20.0136 2.72472 19.979 2.55736 19.8953C2.38999 19.8115 2.24909 19.6819 2.15059 19.5212C2.0521 19.3605 1.99993 19.175 2 18.9858V5.01373C2.00045 4.82484 2.05289 4.63983 2.15141 4.47951C2.24994 4.31919 2.39064 4.18993 2.55769 4.10628C2.72474 4.02262 2.9115 3.98789 3.09695 4.00599C3.28241 4.02409 3.45921 4.09431 3.60744 4.20874Z" fill="#191D21"/>
</svg>
