<svg width="24" height="24" viewBox="0 0 24 24" fill="none" xmlns="http://www.w3.org/2000/svg">
<path d="M15.7143 2V22H13.7931L8.85714 17.7659V6.23412L13.7931 2H15.7143ZM7.71429 7.29412V16.7059H2V7.29412H7.71429ZM20.3363 7.61469C21.3991 8.80119 22 10.353 22 12C22 13.5726 21.4522 15.0585 20.4772 16.2226L20.3476 16.3726L19.5054 15.5774C20.3698 14.6073 20.8571 13.3436 20.8571 12C20.8571 10.7157 20.4118 9.50447 19.6178 8.55297L19.4961 8.41221L20.3363 7.61469ZM18.1807 9.54839C18.7936 10.2017 19.1429 11.0733 19.1429 12C19.1429 12.8808 18.8274 13.7116 18.2703 14.3524L18.163 14.4703L17.3468 13.6468C17.7632 13.2095 18 12.6248 18 12C18 11.4289 17.8022 10.8912 17.4499 10.4688L17.3586 10.3657L18.1807 9.54839Z" fill="#191D21"/>
</svg>
