<svg width="24" height="24" viewBox="0 0 24 24" fill="none" xmlns="http://www.w3.org/2000/svg">
<path fill-rule="evenodd" clip-rule="evenodd" d="M9.74004 2C9.90783 2.00684 10.0593 2.14844 10.1342 2.36865L16.498 21.0354C16.5686 21.2419 16.5611 21.4875 16.4782 21.684C16.3954 21.8808 16.249 22.0002 16.0913 22H2.45492C2.29279 22.0002 2.14297 21.874 2.06157 21.6684C1.98001 21.4629 1.97951 21.2092 2.05991 21.0026L9.33255 2.33594C9.42194 2.13159 9.57458 2.00562 9.74004 2ZM16.49 6.34792L21.9446 21.0144C22.0213 21.2209 22.0181 21.4714 21.9364 21.6736C21.8547 21.8757 21.7062 21.9998 21.5459 22H17.8433L13.7993 10.1377L15.7246 6.27345C15.8163 6.08913 15.966 5.98635 16.1213 6.00148C16.2766 6.01638 16.4157 6.14723 16.49 6.34792Z" fill="#191D21"/>
</svg>
