<svg width="24" height="24" viewBox="0 0 24 24" fill="none" xmlns="http://www.w3.org/2000/svg">
<path fill-rule="evenodd" clip-rule="evenodd" d="M3.4473 12.8939L11.4473 8.89386C11.613 8.81046 11.7524 8.68266 11.8497 8.5247C11.9471 8.36675 11.9986 8.18485 11.9986 7.99931C11.9986 7.81376 11.9471 7.63187 11.8497 7.47391C11.7524 7.31596 11.613 7.18815 11.4473 7.10476L3.4473 3.10475C3.29478 3.02891 3.12543 2.99322 2.95528 3.00106C2.78512 3.00891 2.61977 3.06003 2.47488 3.14959C2.32999 3.23915 2.21033 3.36419 2.12724 3.51289C2.04414 3.66158 2.00035 3.82902 2 3.99936V11.9994C2.00034 12.1697 2.04413 12.3371 2.12722 12.4858C2.21032 12.6345 2.32998 12.7596 2.47488 12.8491C2.61977 12.9387 2.78513 12.9898 2.95529 12.9976C3.12545 13.0054 3.29479 12.9697 3.4473 12.8939ZM15 8.99935H21C21.2652 8.99935 21.5196 8.894 21.7071 8.70646C21.8946 8.51892 22 8.26457 22 7.99935C22 7.73414 21.8946 7.47978 21.7071 7.29225C21.5196 7.10471 21.2652 6.99936 21 6.99936H15C14.7348 6.99936 14.4804 7.10471 14.2929 7.29225C14.1054 7.47978 14 7.73414 14 7.99935C14 8.26457 14.1054 8.51892 14.2929 8.70646C14.4804 8.894 14.7348 8.99935 15 8.99935ZM9.99988 10.9993H20.9999C21.2651 10.9993 21.5194 11.1047 21.707 11.2922C21.8945 11.4798 21.9999 11.7341 21.9999 11.9993C21.9999 12.2646 21.8945 12.5189 21.707 12.7065C21.5194 12.894 21.2651 12.9993 20.9999 12.9993H9.99988C9.73466 12.9993 9.48031 12.894 9.29277 12.7065C9.10524 12.5189 8.99988 12.2646 8.99988 11.9993C8.99988 11.7341 9.10524 11.4798 9.29277 11.2922C9.48031 11.1047 9.73466 10.9993 9.99988 10.9993ZM21 14.9994H3C2.73478 14.9994 2.48043 15.1047 2.29289 15.2922C2.10536 15.4798 2 15.7341 2 15.9994C2 16.2646 2.10536 16.5189 2.29289 16.7065C2.48043 16.894 2.73478 16.9994 3 16.9994H21C21.2652 16.9994 21.5196 16.894 21.7071 16.7065C21.8946 16.5189 22 16.2646 22 15.9994C22 15.7341 21.8946 15.4798 21.7071 15.2922C21.5196 15.1047 21.2652 14.9994 21 14.9994ZM3 18.9994H21C21.2652 18.9994 21.5196 19.1047 21.7071 19.2922C21.8946 19.4798 22 19.7341 22 19.9994C22 20.2646 21.8946 20.5189 21.7071 20.7065C21.5196 20.894 21.2652 20.9994 21 20.9994H3C2.73478 20.9994 2.48043 20.894 2.29289 20.7065C2.10536 20.5189 2 20.2646 2 19.9994C2 19.7341 2.10536 19.4798 2.29289 19.2922C2.48043 19.1047 2.73478 18.9994 3 18.9994Z" fill="#191D21"/>
</svg>
