<svg width="24" height="24" viewBox="0 0 24 24" fill="none" xmlns="http://www.w3.org/2000/svg">
<path d="M21.4488 11.1056L3.44741 2.10495C3.29489 2.02901 3.12552 1.99325 2.95533 2.00105C2.78513 2.00885 2.61974 2.05996 2.47482 2.14953C2.32989 2.2391 2.21022 2.36418 2.12713 2.51292C2.04404 2.66166 2.00028 2.82914 2 2.99951V21.0008C2.00034 21.1712 2.04413 21.3386 2.12723 21.4874C2.21033 21.6361 2.33 21.7611 2.47491 21.8507C2.61982 21.9402 2.78518 21.9913 2.95536 21.9992C3.12553 22.007 3.29489 21.9713 3.44741 21.8954L21.4488 12.8947C21.6145 12.8113 21.7538 12.6835 21.8511 12.5256C21.9485 12.3676 22 12.1857 22 12.0002C22 11.8146 21.9485 11.6327 21.8511 11.4748C21.7538 11.3168 21.6145 11.189 21.4488 11.1056Z" fill="#191D21"/>
</svg>
