<svg width="24" height="24" viewBox="0 0 24 24" fill="none" xmlns="http://www.w3.org/2000/svg">
<path d="M20.3926 4.20874L12.9998 9.94641V5.01373C12.9997 4.82461 12.9475 4.63925 12.8491 4.47863C12.7506 4.318 12.6097 4.18851 12.4425 4.10477C12.2752 4.02104 12.0882 3.98641 11.9025 4.0048C11.7168 4.02319 11.5399 4.09387 11.3918 4.20884L2.39158 11.1943C2.26978 11.289 2.17112 11.4109 2.10322 11.5504C2.03532 11.69 2 11.8436 2 11.9992C2 12.1548 2.03532 12.3084 2.10322 12.448C2.17112 12.5875 2.26978 12.7094 2.39158 12.8041L11.3918 19.7907C11.54 19.9053 11.7169 19.9757 11.9024 19.994C12.088 20.0122 12.2749 19.9775 12.442 19.8938C12.6092 19.8101 12.75 19.6808 12.8485 19.5204C12.9471 19.3599 12.9994 19.1748 12.9998 18.9858V14.0524L20.3916 19.7908C20.5397 19.9059 20.7166 19.9767 20.9024 19.9952C21.0881 20.0136 21.2753 19.979 21.4426 19.8953C21.61 19.8115 21.7509 19.6819 21.8494 19.5212C21.9479 19.3605 22.0001 19.175 22 18.9858V5.01373C21.9995 4.82484 21.9471 4.63983 21.8486 4.47951C21.7501 4.31919 21.6094 4.18993 21.4423 4.10628C21.2753 4.02262 21.0885 3.98789 20.903 4.00599C20.7176 4.02409 20.5408 4.09431 20.3926 4.20874Z" fill="#191D21"/>
</svg>
