<svg width="24" height="24" viewBox="0 0 24 24" fill="none" xmlns="http://www.w3.org/2000/svg">
<path d="M21.4487 16.562L15.4482 13.2284C15.2957 13.1439 15.1263 13.1041 14.9561 13.1126C14.7858 13.1212 14.6204 13.178 14.4754 13.2776C14.3304 13.3771 14.2108 13.5162 14.1277 13.6815C14.0446 13.8469 14.001 14.0331 14.0008 14.2224V16.287C13.143 16.0447 12.3823 15.4917 11.839 14.7153C11.2956 13.9389 11.0006 12.9835 11.0006 12C11.0006 11.0166 11.2956 10.0611 11.839 9.28475C12.3823 8.50838 13.143 7.95534 14.0008 7.71304V9.77764C14.0012 9.96692 14.045 10.153 14.1281 10.3182C14.2112 10.4834 14.3308 10.6224 14.4757 10.7219C14.6207 10.8214 14.786 10.8782 14.9562 10.8869C15.1264 10.8956 15.2957 10.8559 15.4482 10.7716L21.4487 7.43802C21.6144 7.34535 21.7537 7.20334 21.8511 7.02782C21.9484 6.8523 22 6.65018 22 6.444C22 6.23783 21.9484 6.03571 21.8511 5.86019C21.7537 5.68467 21.6144 5.54265 21.4487 5.44999L15.4482 2.11641C15.2957 2.03212 15.1263 1.99247 14.9562 2.00118C14.786 2.0099 14.6207 2.06671 14.4757 2.16623C14.3308 2.26575 14.2112 2.40469 14.1281 2.56992C14.045 2.73515 14.0012 2.9212 14.0008 3.11048V5.43287C13.1918 5.58525 12.4194 5.92022 11.7314 6.41712C11.0434 6.91402 10.4543 7.56231 10.0006 8.32198C9.45416 7.40356 8.71148 6.64988 7.83891 6.12827C6.96634 5.60666 5.99105 5.33339 5.00021 5.33287H3.00007C2.73483 5.33287 2.48046 5.44994 2.29291 5.65833C2.10536 5.86672 2 6.14935 2 6.44406C2 6.73877 2.10536 7.0214 2.29291 7.22979C2.48046 7.43818 2.73483 7.55525 3.00007 7.55525H5.00021C6.06115 7.55525 7.07863 8.02354 7.82883 8.8571C8.57903 9.69065 9.00049 10.8212 9.00049 12C9.00049 13.1789 8.57903 14.3094 7.82883 15.143C7.07863 15.9765 6.06115 16.4448 5.00021 16.4448H3.00007C2.73483 16.4448 2.48046 16.5619 2.29291 16.7703C2.10536 16.9786 2 17.2613 2 17.556C2 17.8507 2.10536 18.1333 2.29291 18.3417C2.48046 18.5501 2.73483 18.6672 3.00007 18.6672H5.00021C5.99105 18.6667 6.96634 18.3934 7.83891 17.8718C8.71148 17.3502 9.45416 16.5965 10.0006 15.6781C10.4543 16.4377 11.0434 17.086 11.7314 17.5829C12.4194 18.0798 13.1918 18.4148 14.0008 18.5672V20.8896C14.0012 21.0789 14.045 21.2649 14.1281 21.4301C14.2112 21.5954 14.3308 21.7343 14.4757 21.8338C14.6207 21.9333 14.786 21.9901 14.9562 21.9988C15.1264 22.0075 15.2957 21.9678 15.4482 21.8835L21.4487 18.55C21.6144 18.4573 21.7537 18.3153 21.851 18.1398C21.9484 17.9642 21.9999 17.7621 21.9999 17.556C21.9999 17.3498 21.9484 17.1477 21.851 16.9722C21.7537 16.7967 21.6144 16.6547 21.4487 16.562Z" fill="#191D21"/>
</svg>
